# xmcd
#
# Track frame offsets:
#	150
#	14136
#	27537
#	41879
#	55831
#	67379
#	81779
#	95355
#	108693
#	122475
#	134841
#	148126
#	162444
#	177885
#	190657
#	205878
#	219659
#	234009
#	247349
#	260035
#
# Disc length: 3639 seconds
# Revision: 0
# Processed by: cddbd v1.5.2PL0 Copyright (c) Steve Scherf et al.
# Submitted via: dBpowerAMP V12.0
#
DISCID=3e0e3514
DTITLE=Various Artist - The Best Of Howlin' Wolf 1951 - 1958
DYEAR=2009
DGENRE=Jazz
TTITLE0=Sonny Boy Williamson - Bluebird Blues
TTITLE1=Charley Patton - Pony Blues
TTITLE2=Gus Cannon - Poor Boy Long Way From Home
TTITLE3=Hambone Willie Newbern - Roll And Tumble Blues
TTITLE4=Harlem Hamfats - Oh! Red
TTITLE5=Charley Patton - Moon Going Down
TTITLE6=Leroy Carr - How Long, How Long Blues
TTITLE7=Sonny Boy Williamson - Sugar Mama Blues
TTITLE8=Mississippi Sheiks - Sitting On Top Of The World
TTITLE9=Elmore James - Dust My Broom
TTITLE10=Johnny Temple - Louise, Louise Blues
TTITLE11=Charley Patton - A Spoonful Blues
TTITLE12=Tommy Johnson - Cool Drink Of Water Blues
TTITLE13=Skip James - I'm So Glad
TTITLE14=Jimmie Rodgers - Blue Yodel (T for Texas)
TTITLE15=Charley Patton - Screamin' And Hollerin' The Blues
TTITLE16=St. Louis Jimmy - Goin' Down Slow
TTITLE17=Tony Hollins - Crawlin' King Snake
TTITLE18=Skip James - Hard Time Killing Floor Blues
TTITLE19=Charley Patton - 34 Blues
EXTD=
EXTT0=
EXTT1=
EXTT2=
EXTT3=
EXTT4=
EXTT5=
EXTT6=
EXTT7=
EXTT8=
EXTT9=
EXTT10=
EXTT11=
EXTT12=
EXTT13=
EXTT14=
EXTT15=
EXTT16=
EXTT17=
EXTT18=
EXTT19=
PLAYORDER=
